<?xml version="1.0" encoding="utf-8"?>
<!-- Generator: Adobe Illustrator 25.0.0, SVG Export Plug-In . SVG Version: 6.00 Build 0)  -->
<svg version="1.1" id="katman_1" xmlns="http://www.w3.org/2000/svg" xmlns:xlink="http://www.w3.org/1999/xlink" x="0px" y="0px"
	 viewBox="0 0 4078.7 2978.7" style="enable-background:new 0 0 4078.7 2978.7;" xml:space="preserve">
<style type="text/css">
	.st0{fill-rule:evenodd;clip-rule:evenodd;fill:#03A9F4;}
	.st1{fill-rule:evenodd;clip-rule:evenodd;fill:url(#SVGID_1_);}
	.st2{fill-rule:evenodd;clip-rule:evenodd;fill:#039BE5;}
	.st3{fill-rule:evenodd;clip-rule:evenodd;fill:#F1F1F1;}
	.st4{fill-rule:evenodd;clip-rule:evenodd;fill:#E1E1E1;}
</style>
<g>
	<path class="st0" d="M949.6,2366.4c-88.1,0-159.5-71.4-159.5-159.5c0-29,7.7-56.2,21.3-79.6l1010-1754.1
		c27.5-47.7,79.1-79.9,138.2-79.9c59.1,0,110.7,32.2,138.2,79.9l1010,1754.1c13.6,23.4,21.3,50.6,21.3,79.6
		c0,88.1-71.4,159.5-159.5,159.5H949.6z"/>
	
		<linearGradient id="SVGID_1_" gradientUnits="userSpaceOnUse" x1="1438.6293" y1="2089.4043" x2="1439.6859" y2="2088.8042" gradientTransform="matrix(1328.8905 0 0 -1328.8905 -1910106.375 2778129.25)">
		<stop  offset="0" style="stop-color:#1A237E;stop-opacity:0.2"/>
		<stop  offset="1" style="stop-color:#1A237E;stop-opacity:2.000000e-02"/>
	</linearGradient>
	<path class="st1" d="M1959.6,1037.5v1328.9h1328.9L1959.6,1037.5z"/>
	<path class="st2" d="M1821.4,373.2l-1010,1754.1c-13.6,23.4-21.3,50.6-21.3,79.6c0,88.1,71.4,159.5,159.5,159.5h1010V293.3
		C1900.5,293.3,1848.9,325.5,1821.4,373.2L1821.4,373.2z"/>
	<path class="st3" d="M1959.6,1037.5l903.6,1594.7l-53.2,53.2l-850.5-318.9l-850.5,318.9l-53.2-53.2L1959.6,1037.5z"/>
	<path class="st4" d="M1959.6,1037.5l903.6,1594.7l-53.2,53.2l-850.5-318.9"/>
</g>
</svg>
